<svg id="Capa_1" enable-background="new 0 0 512 512" height="512" viewBox="0 0 512 512" width="80" fill="#fff" xmlns="http://www.w3.org/2000/svg"><g><path d="m437.019 74.981c-48.353-48.352-112.64-74.981-181.019-74.981s-132.666 26.629-181.019 74.981c-48.352 48.353-74.981 112.64-74.981 181.019 0 75.337 32.978 146.521 90.479 195.299 3.158 2.68 7.891 2.292 10.571-.868 2.68-3.159 2.291-7.891-.868-10.571-34.323-29.117-59.349-66.719-73.081-108.415 12.402 16.142 28.885 31.005 49.122 44.04 12.203 7.86 25.421 14.821 39.452 20.839 6.018 14.032 12.979 27.249 20.839 39.452 13.062 20.279 27.961 36.787 44.142 49.198-20.184-6.635-39.488-15.953-57.437-27.83-3.456-2.287-8.109-1.339-10.394 2.116-2.286 3.454-1.339 8.107 2.116 10.393 41.863 27.704 90.641 42.347 141.059 42.347 68.379 0 132.666-26.629 181.019-74.981 48.352-48.353 74.981-112.64 74.981-181.019s-26.629-132.666-74.981-181.019zm-181.019 28.457c47.361 0 91.57 8.699 128.864 23.697 14.998 37.294 23.697 81.503 23.697 128.864s-8.699 91.57-23.697 128.864c-37.294 15-81.503 23.699-128.864 23.699s-91.57-8.699-128.864-23.697c-14.999-37.295-23.698-81.504-23.698-128.865s8.699-91.57 23.697-128.864c37.295-14.999 81.504-23.698 128.865-23.698zm-120.278 4.475c27.944-56.513 71.469-92.913 120.278-92.913s92.334 36.4 120.278 92.913c-36.581-12.719-77.646-19.475-120.278-19.475s-83.697 6.756-120.278 19.475zm287.84 148.087c0-42.632-6.755-83.697-19.474-120.278 56.512 27.944 92.912 71.469 92.912 120.278s-36.4 92.334-92.913 120.278c12.719-36.581 19.475-77.646 19.475-120.278zm2.85-170.412c27.181 27.181 47.064 59.713 58.678 95.218-12.424-16.239-28.97-31.19-49.312-44.292-12.203-7.86-25.421-14.821-39.452-20.839-6.018-14.032-12.979-27.249-20.839-39.452-13.102-20.342-28.054-36.888-44.293-49.312 35.504 11.613 68.036 31.496 95.218 58.677zm-340.824 0c27.181-27.181 59.713-47.064 95.218-58.678-16.239 12.424-31.19 28.97-44.293 49.312-7.86 12.203-14.821 25.42-20.839 39.452-14.032 6.018-27.249 12.979-39.452 20.839-20.342 13.102-36.888 28.054-49.312 44.292 11.615-35.503 31.497-68.035 58.678-95.217zm-70.588 170.412c0-48.809 36.4-92.334 92.913-120.278-12.719 36.581-19.475 77.646-19.475 120.278s6.755 83.697 19.474 120.278c-56.512-27.944-92.912-71.469-92.912-120.278zm120.722 148.087c36.582 12.719 77.647 19.475 120.278 19.475s83.697-6.755 120.278-19.475c-27.944 56.513-71.469 92.913-120.278 92.913s-92.334-36.4-120.278-92.913zm290.69 22.325c-27.181 27.181-59.713 47.064-95.218 58.678 16.239-12.424 31.19-28.97 44.293-49.312 7.86-12.203 14.821-25.42 20.839-39.452 14.032-6.018 27.249-12.979 39.452-20.839 20.342-13.102 36.888-28.054 49.312-44.292-11.615 35.503-31.497 68.035-58.678 95.217z"/><path d="m370.147 250.692c14.055 0 25.49-11.435 25.49-25.49s-11.435-25.49-25.49-25.49-25.49 11.435-25.49 25.49 11.435 25.49 25.49 25.49zm0-35.979c5.784 0 10.49 4.706 10.49 10.49s-4.706 10.49-10.49 10.49-10.49-4.706-10.49-10.49 4.706-10.49 10.49-10.49z"/><path d="m136.112 241.909c4.064.798 8.007-1.85 8.805-5.914 1.329-6.765 7.309-11.674 14.22-11.674 7.991 0 14.492 6.501 14.492 14.491 0 7.991-6.501 14.492-14.492 14.492-4.142 0-7.5 3.358-7.5 7.5s3.358 7.5 7.5 7.5c7.991 0 14.492 6.501 14.492 14.492s-6.501 14.492-14.492 14.492c-7.19 0-13.36-5.357-14.352-12.463-.093-.665-.14-1.348-.14-2.029 0-4.142-3.358-7.5-7.5-7.5s-7.5 3.358-7.5 7.5c0 1.374.096 2.755.284 4.104 2.02 14.473 14.576 25.388 29.208 25.388 16.262 0 29.492-13.23 29.492-29.492 0-8.73-3.813-16.587-9.862-21.992 6.048-5.405 9.862-13.261 9.862-21.992 0-16.262-13.23-29.491-29.492-29.491-14.062 0-26.232 10.002-28.938 23.784-.799 4.064 1.849 8.006 5.913 8.804z"/><path d="m231.648 312.287c17.839 0 32.353-14.514 32.353-32.353s-14.514-32.353-32.353-32.353c-2.765 0-5.449.35-8.012 1.005 8.052-14.75 18.261-22.639 18.497-22.818 3.309-2.475 3.992-7.163 1.524-10.48-2.473-3.324-7.17-4.014-10.494-1.542-1.175.874-28.677 21.758-33.464 61.091-.264 1.661-.405 3.363-.405 5.097 0 17.839 14.514 32.353 32.354 32.353zm17.353-32.353c0 9.568-7.785 17.353-17.353 17.353-9.569 0-17.354-7.785-17.354-17.353s7.785-17.353 17.354-17.353c9.568 0 17.353 7.785 17.353 17.353z"/><path d="m307.02 312.29c17.838 0 32.35-14.517 32.35-32.36v-39.74c0-2.118-.207-4.231-.614-6.282-.807-4.062-4.756-6.703-8.818-5.894-4.063.807-6.702 4.755-5.894 8.818.216 1.09.326 2.219.326 3.358v39.74c0 9.572-7.783 17.36-17.35 17.36s-17.35-7.788-17.35-17.36v-39.74c0-9.572 7.783-17.36 17.35-17.36.694 0 1.306.035 1.87.108 4.105.526 7.868-2.37 8.399-6.478.53-4.108-2.37-7.868-6.478-8.399-1.207-.156-2.447-.231-3.791-.231-17.838 0-32.35 14.517-32.35 32.36v39.74c0 17.843 14.512 32.36 32.35 32.36z"/></g></svg>